<?xml version="1.0" standalone="no"?>
<svg viewBox="0 0 200 200" xmlns="http://www.w3.org/2000/svg">
  <path fill="#2D45BD" d="M44.8,-78.8C56.6,-70.8,63.8,-55.9,65.8,-41.6C67.8,-27.3,64.7,-13.7,66.9,1.3C69.2,16.3,76.8,32.5,73.4,44.3C69.9,56.1,55.4,63.4,41.3,67.8C27.2,72.2,13.6,73.6,1.6,70.8C-10.4,68.1,-20.8,61,-31.4,54.6C-41.9,48.2,-52.7,42.4,-58.6,33.4C-64.5,24.4,-65.5,12.2,-64.6,0.5C-63.7,-11.1,-60.8,-22.3,-55.9,-33.1C-51.1,-44,-44.3,-54.5,-34.7,-63.7C-25,-73,-12.5,-80.9,2,-84.4C16.5,-87.8,33,-86.8,44.8,-78.8Z" transform="translate(100 100)" />
</svg>
